<svg width="24" height="24" viewBox="0 0 24 24" fill="none" xmlns="http://www.w3.org/2000/svg">
<path d="M4.125 21C3.42881 21 2.76113 20.7234 2.26884 20.2312C1.77656 19.7389 1.5 19.0712 1.5 18.375V14.625C1.5 14.3266 1.61853 14.0405 1.8295 13.8295C2.04048 13.6185 2.32663 13.5 2.625 13.5C2.92337 13.5 3.20952 13.6185 3.4205 13.8295C3.63147 14.0405 3.75 14.3266 3.75 14.625V18.375C3.75 18.582 3.918 18.75 4.125 18.75H19.875C19.9745 18.75 20.0698 18.7105 20.1402 18.6402C20.2105 18.5698 20.25 18.4745 20.25 18.375V14.625C20.25 14.3266 20.3685 14.0405 20.5795 13.8295C20.7905 13.6185 21.0766 13.5 21.375 13.5C21.6734 13.5 21.9595 13.6185 22.1705 13.8295C22.3815 14.0405 22.5 14.3266 22.5 14.625V18.375C22.5 19.0712 22.2234 19.7389 21.7312 20.2312C21.2389 20.7234 20.5712 21 19.875 21H4.125Z" fill="white"/>
<path d="M10.8753 11.5335V3C10.8753 2.70163 10.9938 2.41548 11.2048 2.2045C11.4158 1.99353 11.7019 1.875 12.0003 1.875C12.2986 1.875 12.5848 1.99353 12.7958 2.2045C13.0067 2.41548 13.1253 2.70163 13.1253 3V11.5335L16.0803 8.58C16.1847 8.4756 16.3086 8.39278 16.445 8.33628C16.5814 8.27978 16.7276 8.2507 16.8753 8.2507C17.0229 8.2507 17.1691 8.27978 17.3055 8.33628C17.4419 8.39278 17.5659 8.4756 17.6703 8.58C17.7747 8.6844 17.8575 8.80834 17.914 8.94475C17.9705 9.08116 17.9996 9.22735 17.9996 9.375C17.9996 9.52265 17.9705 9.66884 17.914 9.80525C17.8575 9.94166 17.7747 10.0656 17.6703 10.17L12.7953 15.045C12.6909 15.1495 12.567 15.2324 12.4306 15.289C12.2942 15.3455 12.148 15.3746 12.0003 15.3746C11.8526 15.3746 11.7064 15.3455 11.57 15.289C11.4335 15.2324 11.3096 15.1495 11.2053 15.045L6.33028 10.17C6.22588 10.0656 6.14306 9.94166 6.08656 9.80525C6.03006 9.66884 6.00098 9.52265 6.00098 9.375C6.00098 9.22735 6.03006 9.08116 6.08656 8.94475C6.14306 8.80834 6.22588 8.6844 6.33028 8.58C6.43468 8.4756 6.55862 8.39278 6.69503 8.33628C6.83143 8.27978 6.97763 8.2507 7.12528 8.2507C7.27292 8.2507 7.41912 8.27978 7.55553 8.33628C7.69193 8.39278 7.81588 8.4756 7.92028 8.58L10.8753 11.5335Z" fill="white"/>
</svg>
