<svg width="22" height="22" viewBox="0 0 22 22" fill="none" xmlns="http://www.w3.org/2000/svg">
<g id="jam:facebook-square">
<g id="Group">
<path id="Vector" d="M9.69452 7.937V9.314H8.68652V10.997H9.69452V16H11.7665V10.997H13.1565C13.1565 10.997 13.2875 10.19 13.3505 9.307H11.7745V8.157C11.7745 7.984 12.0005 7.753 12.2245 7.753H13.3525V6H11.8175C9.64352 6 9.69452 7.685 9.69452 7.937Z" fill="#111111"/>
<path id="Vector_2" d="M5 3C4.46957 3 3.96086 3.21071 3.58579 3.58579C3.21071 3.96086 3 4.46957 3 5V17C3 17.5304 3.21071 18.0391 3.58579 18.4142C3.96086 18.7893 4.46957 19 5 19H17C17.5304 19 18.0391 18.7893 18.4142 18.4142C18.7893 18.0391 19 17.5304 19 17V5C19 4.46957 18.7893 3.96086 18.4142 3.58579C18.0391 3.21071 17.5304 3 17 3H5ZM5 1H17C18.0609 1 19.0783 1.42143 19.8284 2.17157C20.5786 2.92172 21 3.93913 21 5V17C21 18.0609 20.5786 19.0783 19.8284 19.8284C19.0783 20.5786 18.0609 21 17 21H5C3.93913 21 2.92172 20.5786 2.17157 19.8284C1.42143 19.0783 1 18.0609 1 17V5C1 3.93913 1.42143 2.92172 2.17157 2.17157C2.92172 1.42143 3.93913 1 5 1Z" fill="#111111"/>
</g>
</g>
</svg>
