<svg width="22" height="22" viewBox="0 0 22 22" fill="none" xmlns="http://www.w3.org/2000/svg">
<g id="icon-park-outline:twitter">
<path id="Vector" d="M2 16.3811C2.96449 16.9146 9.94544 20.9385 14.9099 17.8371C19.8739 14.7356 19.5999 9.39212 19.5999 6.94314C20.0499 6.00114 20.9999 5.52215 20.9999 2.97217C20.0669 3.83416 19.1394 4.12716 18.2174 3.85216C17.3144 2.47517 16.0719 1.86567 14.4894 2.02467C12.1164 2.26317 11.2484 4.59115 11.5039 7.60363C7.84495 9.45362 4.97598 6.26214 3.49699 3.85216C3.00299 5.75014 2.527 8.02913 3.49699 10.5496C4.14398 12.2306 5.69947 13.6511 8.16245 14.8126C5.66597 16.1651 3.61199 16.6886 2 16.3811Z" stroke="#111111" stroke-width="1.6" stroke-linejoin="round"/>
</g>
</svg>
