<svg width="22" height="22" viewBox="0 0 22 22" fill="none" xmlns="http://www.w3.org/2000/svg">
<g id="mdi:instagram">
<path id="Vector" d="M7.31667 2H15.0167C17.95 2 20.3333 4.34 20.3333 7.22V14.78C20.3333 16.1644 19.7732 17.4922 18.7761 18.4711C17.7791 19.45 16.4267 20 15.0167 20H7.31667C4.38333 20 2 17.66 2 14.78V7.22C2 5.83557 2.56015 4.50784 3.55722 3.5289C4.55428 2.54996 5.9066 2 7.31667 2ZM7.13333 3.8C6.25812 3.8 5.41875 4.14136 4.79988 4.74897C4.18101 5.35659 3.83333 6.1807 3.83333 7.04V14.96C3.83333 16.751 5.30917 18.2 7.13333 18.2H15.2C16.0752 18.2 16.9146 17.8586 17.5335 17.251C18.1523 16.6434 18.5 15.8193 18.5 14.96V7.04C18.5 5.249 17.0242 3.8 15.2 3.8H7.13333ZM15.9792 5.15C16.2831 5.15 16.5745 5.26853 16.7894 5.4795C17.0043 5.69048 17.125 5.97663 17.125 6.275C17.125 6.57337 17.0043 6.85952 16.7894 7.07049C16.5745 7.28147 16.2831 7.4 15.9792 7.4C15.6753 7.4 15.3838 7.28147 15.1689 7.07049C14.9541 6.85952 14.8333 6.57337 14.8333 6.275C14.8333 5.97663 14.9541 5.69048 15.1689 5.4795C15.3838 5.26853 15.6753 5.15 15.9792 5.15ZM11.1667 6.5C12.3822 6.5 13.548 6.97411 14.4076 7.81802C15.2671 8.66193 15.75 9.80653 15.75 11C15.75 12.1935 15.2671 13.3381 14.4076 14.182C13.548 15.0259 12.3822 15.5 11.1667 15.5C9.95109 15.5 8.7853 15.0259 7.92576 14.182C7.06622 13.3381 6.58333 12.1935 6.58333 11C6.58333 9.80653 7.06622 8.66193 7.92576 7.81802C8.7853 6.97411 9.95109 6.5 11.1667 6.5ZM11.1667 8.3C10.4373 8.3 9.73785 8.58446 9.22212 9.09081C8.7064 9.59716 8.41667 10.2839 8.41667 11C8.41667 11.7161 8.7064 12.4028 9.22212 12.9092C9.73785 13.4155 10.4373 13.7 11.1667 13.7C11.896 13.7 12.5955 13.4155 13.1112 12.9092C13.6269 12.4028 13.9167 11.7161 13.9167 11C13.9167 10.2839 13.6269 9.59716 13.1112 9.09081C12.5955 8.58446 11.896 8.3 11.1667 8.3Z" fill="#111111"/>
</g>
</svg>
