<svg width="22" height="22" viewBox="0 0 22 22" fill="none" xmlns="http://www.w3.org/2000/svg">
<g id="mingcute:youtube-line" clip-path="url(#clip0_131_173)">
<g id="Group">
<path id="Vector" d="M11 3C11.855 3 12.732 3.022 13.582 3.058L14.586 3.106L15.547 3.163L16.447 3.224L17.269 3.288C18.161 3.35628 19.0004 3.73695 19.6395 4.36304C20.2786 4.98913 20.6764 5.82054 20.763 6.711L20.803 7.136L20.878 8.046C20.948 8.989 21 10.017 21 11C21 11.983 20.948 13.011 20.878 13.954L20.803 14.864C20.79 15.01 20.777 15.151 20.763 15.289C20.6764 16.1796 20.2784 17.0112 19.6391 17.6373C18.9999 18.2634 18.1602 18.6439 17.268 18.712L16.448 18.775L15.548 18.837L14.586 18.894L13.582 18.942C12.7218 18.9794 11.861 18.9987 11 19C10.139 18.9987 9.27817 18.9794 8.418 18.942L7.414 18.894L6.453 18.837L5.553 18.775L4.731 18.712C3.83895 18.6437 2.99955 18.2631 2.36047 17.637C1.72139 17.0109 1.32357 16.1795 1.237 15.289L1.197 14.864L1.122 13.954C1.04554 12.9711 1.00484 11.9858 1 11C1 10.017 1.052 8.989 1.122 8.046L1.197 7.136C1.21 6.99 1.223 6.849 1.237 6.711C1.32354 5.8207 1.72122 4.98942 2.36009 4.36334C2.99897 3.73727 3.83813 3.3565 4.73 3.288L5.551 3.224L6.451 3.163L7.413 3.106L8.417 3.058C9.2775 3.02063 10.1387 3.0013 11 3ZM11 5C10.175 5 9.326 5.022 8.5 5.056L7.522 5.103L6.583 5.158L5.701 5.218L4.893 5.281C4.46833 5.31113 4.06804 5.49065 3.76309 5.78773C3.45814 6.08481 3.26822 6.48026 3.227 6.904C3.11 8.113 3 9.618 3 11C3 12.382 3.11 13.887 3.227 15.096C3.312 15.968 4.004 16.646 4.893 16.719L5.701 16.781L6.583 16.841L7.522 16.897L8.5 16.944C9.326 16.978 10.175 17 11 17C11.825 17 12.674 16.978 13.5 16.944L14.478 16.897L15.417 16.842L16.299 16.782L17.107 16.719C17.5317 16.6889 17.932 16.5094 18.2369 16.2123C18.5419 15.9152 18.7318 15.5197 18.773 15.096C18.89 13.887 19 12.382 19 11C19 9.618 18.89 8.113 18.773 6.904C18.7318 6.48026 18.5419 6.08481 18.2369 5.78773C17.932 5.49065 17.5317 5.31113 17.107 5.281L16.299 5.219L15.417 5.159L14.478 5.103L13.5 5.056C12.6671 5.02017 11.8336 5.0015 11 5ZM9 8.575C8.99994 8.47726 9.02375 8.38099 9.06937 8.29455C9.11498 8.20812 9.18103 8.13413 9.26175 8.07903C9.34248 8.02394 9.43544 7.98939 9.53256 7.97841C9.62968 7.96742 9.72801 7.98033 9.819 8.016L9.9 8.056L14.1 10.48C14.1836 10.5283 14.2544 10.596 14.3063 10.6774C14.3581 10.7589 14.3896 10.8517 14.3979 10.9478C14.4062 11.044 14.3912 11.1408 14.3542 11.23C14.3171 11.3192 14.2591 11.3981 14.185 11.46L14.1 11.52L9.9 13.945C9.81536 13.994 9.72003 14.0216 9.62229 14.0253C9.52456 14.0291 9.4274 14.0089 9.33926 13.9665C9.25112 13.9241 9.17468 13.8608 9.1166 13.7821C9.05851 13.7034 9.02054 13.6117 9.006 13.515L9 13.425V8.575Z" fill="#111111"/>
</g>
</g>
<defs>
<clipPath id="clip0_131_173">
<rect width="22" height="22" fill="white"/>
</clipPath>
</defs>
</svg>
