<svg width="66" height="160" viewBox="0 0 66 160" fill="none" xmlns="http://www.w3.org/2000/svg">
<path d="M0.471908 83.8856C2.5259 84.7034 4.72687 85.2762 6.60749 86.388C10.2971 88.5739 12.9127 91.8679 14.9742 95.5989C15.1815 95.9721 15.4151 96.3339 15.6526 96.7296C15.385 93.1266 15.1476 89.5953 14.8536 86.0677C14.7179 84.417 13.9491 83.4635 12.3134 82.5929C10.4403 81.5941 8.61625 79.8907 7.57607 78.0402C4.38014 72.3493 3.24196 66.0856 3.53593 59.5694C3.55854 59.0304 3.74321 58.499 3.92035 57.6473C10.2821 61.9362 13.7493 67.7288 15.3021 74.8593C15.6224 71.7915 16.0596 68.7275 16.2028 65.6484C16.248 64.6308 15.8335 63.2552 15.1174 62.5957C10.0182 57.9073 9.61875 51.8396 10.0446 45.5985C10.2481 42.6249 10.9906 39.689 11.5258 36.7418C11.5861 36.414 11.8913 36.1275 12.1815 35.664C17.2731 41.0609 19.1839 47.351 18.8711 54.5456C19.8774 51.6775 21.0495 48.8509 21.7957 45.9151C22.052 44.9088 21.2982 43.6048 20.8836 42.4817C20.1563 40.5182 18.7769 38.6262 18.6563 36.6438C18.2756 30.2972 19.5872 24.1956 22.5193 18.4971C22.8208 17.913 23.2467 17.3967 23.8007 16.5675C25.8735 19.7371 26.8609 22.9556 27.0343 26.3061C27.2039 29.6264 26.8609 32.973 26.7441 36.2142C28.376 33.708 30.2039 31.1113 31.7717 28.3601C32.2277 27.5573 32.3596 26.0423 31.8998 25.3375C29.4576 21.6139 30.0493 17.7547 31.1724 13.9181C32.6573 8.83022 35.4726 4.54511 39.9009 0.700948C41.4951 8.05762 40.4399 14.6266 37.5605 20.8602C39.7653 18.7685 42.068 16.609 44.3293 14.4042C44.6044 14.1367 44.7966 13.6392 44.7928 13.251C44.7476 10.1493 46.3606 7.88425 48.5164 5.96217C52.0779 2.78509 56.6607 1.85043 61.3943 -0.0113525C60.5086 3.83658 59.1594 6.84784 56.9396 9.44453C54.2789 12.5575 50.9246 14.2384 46.877 15.1505C44.789 15.6216 43.0516 17.6492 41.2954 19.1605C46.485 18.3351 53.6382 18.7873 55.971 20.3891C53.4384 24.0749 50.0653 26.5322 45.6257 27.0448C43.5303 27.286 41.2615 26.9769 39.2075 26.4116C36.1171 25.5636 35.8382 25.4656 33.9425 28.1528C32.9023 29.6301 31.9149 31.1452 30.9878 32.7997C35.7967 30.056 41.0655 30.3839 46.3531 30.0372C46.3531 30.4442 46.4435 30.7344 46.3418 30.9115C43.421 35.9918 39.3921 39.6174 33.3659 40.3938C31.9676 40.5747 30.5016 40.2845 29.0732 40.1639C27.4564 40.0282 26.3559 40.5295 25.7378 42.184C24.8032 44.6902 23.6801 47.1286 22.753 49.6989C26.9966 45.8472 32.4237 44.5884 37.3608 42.3121C37.5153 42.4478 37.6736 42.5835 37.8281 42.7191C37.1874 44.2229 36.5957 45.753 35.8947 47.2304C34.2402 50.7165 32.3106 54.0707 28.9187 56.1172C27.2001 57.1536 25.1989 57.8847 23.2278 58.3068C20.1902 58.9588 19.6776 59.1963 19.0822 62.2075C18.5244 65.019 18.0608 67.8494 17.7782 70.7928C20.7442 65.1434 26.1185 62.1397 30.6297 58.2277C30.8295 58.2955 31.033 58.3596 31.2327 58.4274C31.0141 60.2967 30.9199 62.1887 30.5543 64.0278C29.4689 69.4624 27.0946 74.2073 22.6437 77.701C21.7203 78.4246 20.6161 78.9296 19.557 79.461C17.6689 80.4032 16.7719 81.8504 16.9189 83.9949C17.1262 86.991 17.2468 89.9948 17.6048 93.0739C19.4779 86.4144 24.2906 81.7072 28.0255 76.3028C28.2554 76.3254 28.4853 76.348 28.7114 76.3706C28.8999 77.9723 29.2277 79.5703 29.2579 81.1758C29.3521 86.0903 28.3835 90.8051 25.8019 95.0223C24.675 96.8615 23.1525 98.4971 21.6299 100.046C19.9075 101.795 19.0294 103.525 20.0093 106.046C21.1475 108.989 21.9766 112.05 22.8698 114.846C23.5595 111.582 24.057 108.217 25.0142 104.987C25.964 101.776 27.3773 98.7007 28.5833 95.565C28.8019 95.5349 29.0205 95.5047 29.2353 95.4746C29.8986 97.2158 30.7503 98.9079 31.1913 100.706C32.9249 107.723 32.4915 114.496 28.5117 120.774C27.3283 122.64 27.1248 124.408 28.6021 126.315C30.0041 128.124 31.1574 130.121 32.6272 131.968C31.3006 125.327 33.0681 118.935 33.4902 111.925C34.3194 112.604 34.8395 112.894 35.1749 113.324C40.5567 120.277 42.3017 127.946 39.6258 136.453C39.004 138.427 39.2037 140.044 41.073 141.378C43.5416 143.138 45.8556 145.109 48.3732 146.847C44.5818 141.066 44.6195 134.429 43.2476 127.649C47.088 129.164 49.6093 131.402 51.6294 134.237C54.211 137.858 55.5301 141.88 55.4472 146.376C55.368 150.68 55.417 150.717 59.476 152.172C61.5111 152.903 63.6104 153.461 65.7322 154.109C65.3365 155.862 64.5563 156.465 62.8905 155.851C61.1343 155.202 59.3064 154.742 57.5162 154.181C55.9861 153.702 54.7462 153.902 53.8115 155.394C52.3982 157.652 50.1784 158.847 47.6797 159.404C42.3054 160.607 37.0894 159.947 32.1222 157.584C31.2516 157.17 30.5393 156.435 29.533 155.688C34.8998 151.011 40.6547 148.464 47.9284 149.673C45.1282 147.533 42.6069 145.501 39.9499 143.662C39.3921 143.278 38.0279 143.259 37.5605 143.67C34.455 146.398 30.8898 146.402 27.268 145.479C22.3912 144.235 18.0043 142.027 14.7933 137.953C14.5709 137.67 14.4126 137.331 14.2317 137.029C17.3184 134.399 25.8509 132.88 33.2641 136.814C31.1159 133.758 29.1184 130.769 26.9476 127.909C26.2466 126.985 25.2027 126.571 23.7894 127.102C21.0382 128.131 18.287 127.528 15.8372 126.103C11.0358 123.315 7.62506 119.222 5.38263 114.156C5.18289 113.704 5.07359 113.203 4.96053 112.717C4.90777 112.483 4.95299 112.227 4.95299 111.718C11.6765 111.895 17.6839 113.489 22.2065 118.928C20.65 114.733 19.1349 110.523 17.5144 106.355C17.0885 105.258 16.2367 104.667 14.8611 104.723C12.1476 104.832 10.1351 103.359 8.36751 101.456C4.52335 97.3138 2.17163 92.3992 0.796023 86.9684C0.724416 86.682 0.569896 86.4144 0.453064 86.1393C0.453064 85.3855 0.453064 84.6356 0.453064 83.8818L0.471908 83.8856Z" fill="#FFBF69"/>
<path d="M0.471908 83.8856C2.5259 84.7034 4.72687 85.2762 6.60749 86.388C10.2971 88.5739 12.9127 91.8679 14.9742 95.5989C15.1815 95.9721 15.4151 96.3339 15.6526 96.7296C15.385 93.1266 15.1476 89.5953 14.8536 86.0677C14.7179 84.417 13.9491 83.4635 12.3134 82.5929C10.4403 81.5941 8.61625 79.8907 7.57607 78.0402C4.38014 72.3493 3.24196 66.0856 3.53593 59.5694C3.55854 59.0304 3.74321 58.499 3.92035 57.6473C10.2821 61.9362 13.7493 67.7288 15.3021 74.8593C15.6224 71.7915 16.0596 68.7275 16.2028 65.6484C16.248 64.6308 15.8335 63.2552 15.1174 62.5957C10.0182 57.9073 9.61875 51.8396 10.0446 45.5985C10.2481 42.6249 10.9906 39.689 11.5258 36.7418C11.5861 36.414 11.8913 36.1275 12.1815 35.664C17.2731 41.0609 19.1839 47.351 18.8711 54.5456C19.8774 51.6775 21.0495 48.8509 21.7957 45.9151C22.052 44.9088 21.2982 43.6048 20.8836 42.4817C20.1563 40.5182 18.7769 38.6262 18.6563 36.6438C18.2756 30.2972 19.5872 24.1956 22.5193 18.4971C22.8208 17.913 23.2467 17.3967 23.8007 16.5675C25.8735 19.7371 26.8609 22.9556 27.0343 26.3061C27.2039 29.6264 26.8609 32.973 26.7441 36.2142C28.376 33.708 30.2039 31.1113 31.7717 28.3601C32.2277 27.5573 32.3596 26.0423 31.8998 25.3375C29.4576 21.6139 30.0493 17.7547 31.1724 13.9181C32.6573 8.83022 35.4726 4.54511 39.9009 0.700948C41.4951 8.05762 40.4399 14.6266 37.5605 20.8602C39.7653 18.7685 42.068 16.609 44.3293 14.4042C44.6044 14.1367 44.7966 13.6392 44.7928 13.251C44.7476 10.1493 46.3606 7.88425 48.5164 5.96217C52.0779 2.78509 56.6607 1.85043 61.3943 -0.0113525C60.5086 3.83658 59.1594 6.84784 56.9396 9.44453C54.2789 12.5575 50.9246 14.2384 46.877 15.1505C44.789 15.6216 43.0516 17.6492 41.2954 19.1605C46.485 18.3351 53.6382 18.7873 55.971 20.3891C53.4384 24.0749 50.0653 26.5322 45.6257 27.0448C43.5303 27.286 41.2615 26.9769 39.2075 26.4116C36.1171 25.5636 35.8382 25.4656 33.9425 28.1528C32.9023 29.6301 31.9149 31.1452 30.9878 32.7997C35.7967 30.056 41.0655 30.3839 46.3531 30.0372C46.3531 30.4442 46.4435 30.7344 46.3418 30.9115C43.421 35.9918 39.3921 39.6174 33.3659 40.3938C31.9676 40.5747 30.5016 40.2845 29.0732 40.1639C27.4564 40.0282 26.3559 40.5295 25.7378 42.184C24.8032 44.6902 23.6801 47.1286 22.753 49.6989C26.9966 45.8472 32.4237 44.5884 37.3608 42.3121C37.5153 42.4478 37.6736 42.5835 37.8281 42.7191C37.1874 44.2229 36.5957 45.753 35.8947 47.2304C34.2402 50.7165 32.3106 54.0707 28.9187 56.1172C27.2001 57.1536 25.1989 57.8847 23.2278 58.3068C20.1902 58.9588 19.6776 59.1963 19.0822 62.2075C18.5244 65.019 18.0608 67.8494 17.7782 70.7928C20.7442 65.1434 26.1185 62.1397 30.6297 58.2277C30.8295 58.2955 31.033 58.3596 31.2327 58.4274C31.0141 60.2967 30.9199 62.1887 30.5543 64.0278C29.4689 69.4624 27.0946 74.2073 22.6437 77.701C21.7203 78.4246 20.6161 78.9296 19.557 79.461C17.6689 80.4032 16.7719 81.8504 16.9189 83.9949C17.1262 86.991 17.2468 89.9948 17.6048 93.0739C19.4779 86.4144 24.2906 81.7072 28.0255 76.3028C28.2554 76.3254 28.4853 76.348 28.7114 76.3706C28.8999 77.9723 29.2277 79.5703 29.2579 81.1758C29.3521 86.0903 28.3835 90.8051 25.8019 95.0223C24.675 96.8615 23.1525 98.4971 21.6299 100.046C19.9075 101.795 19.0294 103.525 20.0093 106.046C21.1475 108.989 21.9766 112.05 22.8698 114.846C23.5595 111.582 24.057 108.217 25.0142 104.987C25.964 101.776 27.3773 98.7007 28.5833 95.565C28.8019 95.5349 29.0205 95.5047 29.2353 95.4746C29.8986 97.2158 30.7503 98.9079 31.1913 100.706C32.9249 107.723 32.4915 114.496 28.5117 120.774C27.3283 122.64 27.1248 124.408 28.6021 126.315C30.0041 128.124 31.1574 130.121 32.6272 131.968C31.3006 125.327 33.0681 118.935 33.4902 111.925C34.3194 112.604 34.8395 112.894 35.1749 113.324C40.5567 120.277 42.3017 127.946 39.6258 136.453C39.004 138.427 39.2037 140.044 41.073 141.378C43.5416 143.138 45.8556 145.109 48.3732 146.847C44.5818 141.066 44.6195 134.429 43.2476 127.649C47.088 129.164 49.6093 131.402 51.6294 134.237C54.211 137.858 55.5301 141.88 55.4472 146.376C55.368 150.68 55.417 150.717 59.476 152.172C61.5111 152.903 63.6104 153.461 65.7322 154.109C65.3365 155.862 64.5563 156.465 62.8905 155.851C61.1343 155.202 59.3064 154.742 57.5162 154.181C55.9861 153.702 54.7462 153.902 53.8115 155.394C52.3982 157.652 50.1784 158.847 47.6797 159.404C42.3054 160.607 37.0894 159.947 32.1222 157.584C31.2516 157.17 30.5393 156.435 29.533 155.688C34.8998 151.011 40.6547 148.464 47.9284 149.673C45.1282 147.533 42.6069 145.501 39.9499 143.662C39.3921 143.278 38.0279 143.259 37.5605 143.67C34.455 146.398 30.8898 146.402 27.268 145.479C22.3912 144.235 18.0043 142.027 14.7933 137.953C14.5709 137.67 14.4126 137.331 14.2317 137.029C17.3184 134.399 25.8509 132.88 33.2641 136.814C31.1159 133.758 29.1184 130.769 26.9476 127.909C26.2466 126.985 25.2027 126.571 23.7894 127.102C21.0382 128.131 18.287 127.528 15.8372 126.103C11.0358 123.315 7.62506 119.222 5.38263 114.156C5.18289 113.704 5.07359 113.203 4.96053 112.717C4.90777 112.483 4.95299 112.227 4.95299 111.718C11.6765 111.895 17.6839 113.489 22.2065 118.928C20.65 114.733 19.1349 110.523 17.5144 106.355C17.0885 105.258 16.2367 104.667 14.8611 104.723C12.1476 104.832 10.1351 103.359 8.36751 101.456C4.52335 97.3138 2.17163 92.3992 0.796023 86.9684C0.724416 86.682 0.569896 86.4144 0.453064 86.1393C0.453064 85.3855 0.453064 84.6356 0.453064 83.8818L0.471908 83.8856Z" fill="url(#paint0_linear_565_1484)" fill-opacity="0.2"/>
<defs>
<linearGradient id="paint0_linear_565_1484" x1="0.23578" y1="-3.50012" x2="33.0926" y2="159.992" gradientUnits="userSpaceOnUse">
<stop/>
<stop offset="0.51827" stop-opacity="0.48173"/>
<stop offset="1"/>
</linearGradient>
</defs>
</svg>
