<svg width="66" height="160" viewBox="0 0 66 160" fill="none" xmlns="http://www.w3.org/2000/svg">
<path d="M66 83.8856C63.946 84.7034 61.745 85.2762 59.8644 86.388C56.1747 88.5739 53.5592 91.8679 51.4977 95.5989C51.2904 95.9721 51.0567 96.3339 50.8193 96.7296C51.0869 93.1266 51.3243 89.5953 51.6183 86.0677C51.7539 84.417 52.5228 83.4635 54.1584 82.5929C56.0315 81.5941 57.8556 79.8907 58.8958 78.0402C62.0917 72.3493 63.2299 66.0856 62.9359 59.5694C62.9133 59.0304 62.7286 58.499 62.5515 57.6473C56.1898 61.9362 52.7225 67.7288 51.1698 74.8593C50.8494 71.7915 50.4123 68.7275 50.269 65.6484C50.2238 64.6308 50.6384 63.2552 51.3545 62.5957C56.4536 57.9073 56.8531 51.8396 56.4272 45.5985C56.2237 42.6249 55.4813 39.689 54.9461 36.7418C54.8858 36.414 54.5805 36.1275 54.2903 35.664C49.1987 41.0609 47.2879 47.351 47.6007 54.5456C46.5945 51.6775 45.4224 48.8509 44.6762 45.9151C44.4199 44.9088 45.1737 43.6048 45.5882 42.4817C46.3156 40.5182 47.695 38.6262 47.8156 36.6438C48.1962 30.2972 46.8847 24.1956 43.9526 18.4971C43.6511 17.913 43.2252 17.3967 42.6712 16.5675C40.5983 19.7371 39.6109 22.9556 39.4376 26.3061C39.268 29.6264 39.6109 32.973 39.7278 36.2142C38.0959 33.708 36.268 31.1113 34.7002 28.3601C34.2442 27.5573 34.1123 26.0423 34.5721 25.3375C37.0142 21.6139 36.4225 17.7547 35.2994 13.9181C33.8145 8.83022 30.9992 4.54511 26.5709 0.700948C24.9767 8.05762 26.032 14.6266 28.9113 20.8602C26.7066 18.7685 24.4039 16.609 22.1426 14.4042C21.8675 14.1367 21.6753 13.6392 21.679 13.251C21.7243 10.1493 20.1112 7.88425 17.9555 5.96217C14.394 2.78509 9.81115 1.85043 5.07755 -0.0113525C5.96321 3.83658 7.31244 6.84784 9.53225 9.44453C12.193 12.5575 15.5472 14.2384 19.5949 15.1505C21.6828 15.6216 23.4202 17.6492 25.1765 19.1605C19.9869 18.3351 12.8337 18.7873 10.5008 20.3891C13.0335 24.0749 16.4065 26.5322 20.8461 27.0448C22.9416 27.286 25.2104 26.9769 27.2644 26.4116C30.3548 25.5636 30.6337 25.4656 32.5294 28.1528C33.5696 29.6301 34.557 31.1452 35.4841 32.7997C30.6751 30.056 25.4064 30.3839 20.1188 30.0372C20.1188 30.4442 20.0283 30.7344 20.1301 30.9115C23.0509 35.9918 27.0797 39.6174 33.106 40.3938C34.5042 40.5747 35.9703 40.2845 37.3986 40.1639C39.0155 40.0282 40.1159 40.5295 40.734 42.184C41.6687 44.6902 42.7918 47.1286 43.7189 49.6989C39.4752 45.8472 34.0482 44.5884 29.1111 42.3121C28.9566 42.4478 28.7983 42.5835 28.6438 42.7191C29.2845 44.2229 29.8762 45.753 30.5771 47.2304C32.2316 50.7165 34.1613 54.0707 37.5532 56.1172C39.2717 57.1536 41.273 57.8847 43.244 58.3068C46.2817 58.9588 46.7942 59.1963 47.3897 62.2075C47.9475 65.019 48.411 67.8494 48.6937 70.7928C45.7277 65.1434 40.3534 62.1397 35.8421 58.2277C35.6424 58.2955 35.4389 58.3596 35.2391 58.4274C35.4577 60.2967 35.5519 62.1887 35.9175 64.0278C37.0029 69.4624 39.3773 74.2073 43.8282 77.701C44.7515 78.4246 45.8558 78.9296 46.9148 79.461C48.803 80.4032 49.7 81.8504 49.553 83.9949C49.3457 86.991 49.2251 89.9948 48.8671 93.0739C46.994 86.4144 42.1812 81.7072 38.4464 76.3028C38.2165 76.3254 37.9866 76.348 37.7605 76.3706C37.572 77.9723 37.2441 79.5703 37.214 81.1758C37.1198 86.0903 38.0883 90.8051 40.67 95.0223C41.7968 96.8615 43.3194 98.4971 44.842 100.046C46.5643 101.795 47.4425 103.525 46.4626 106.046C45.3244 108.989 44.4953 112.05 43.6021 114.846C42.9124 111.582 42.4149 108.217 41.4576 104.987C40.5079 101.776 39.0946 98.7007 37.8886 95.565C37.67 95.5349 37.4514 95.5047 37.2366 95.4746C36.5733 97.2158 35.7215 98.9079 35.2806 100.706C33.5469 107.723 33.9804 114.496 37.9602 120.774C39.1436 122.64 39.3471 124.408 37.8697 126.315C36.4678 128.124 35.3145 130.121 33.8447 131.968C35.1713 125.327 33.4037 118.935 32.9816 111.925C32.1525 112.604 31.6324 112.894 31.297 113.324C25.9152 120.277 24.1702 127.946 26.8461 136.453C27.4679 138.427 27.2682 140.044 25.3988 141.378C22.9303 143.138 20.6162 145.109 18.0987 146.847C21.8901 141.066 21.8524 134.429 23.2242 127.649C19.3839 129.164 16.8625 131.402 14.8425 134.237C12.2608 137.858 10.9418 141.88 11.0247 146.376C11.1038 150.68 11.0548 150.717 6.99586 152.172C4.96072 152.903 2.8615 153.461 0.739677 154.109C1.1354 155.862 1.91554 156.465 3.58134 155.851C5.3376 155.202 7.16545 154.742 8.95563 154.181C10.4858 153.702 11.7257 153.902 12.6603 155.394C14.0736 157.652 16.2935 158.847 18.7922 159.404C24.1664 160.607 29.3824 159.947 34.3497 157.584C35.2203 157.17 35.9326 156.435 36.9389 155.688C31.5721 151.011 25.8172 148.464 18.5434 149.673C21.3436 147.533 23.8649 145.501 26.5219 143.662C27.0797 143.278 28.444 143.259 28.9113 143.67C32.0168 146.398 35.5821 146.402 39.2039 145.479C44.0807 144.235 48.4676 142.027 51.6786 137.953C51.9009 137.67 52.0592 137.331 52.2401 137.029C49.1535 134.399 40.621 132.88 33.2078 136.814C35.356 133.758 37.3534 130.769 39.5242 127.909C40.2252 126.985 41.2692 126.571 42.6825 127.102C45.4337 128.131 48.1849 127.528 50.6346 126.103C55.4361 123.315 58.8468 119.222 61.0892 114.156C61.289 113.704 61.3983 113.203 61.5113 112.717C61.5641 112.483 61.5189 112.227 61.5189 111.718C54.7954 111.895 48.7879 113.489 44.2654 118.928C45.8219 114.733 47.3369 110.523 48.9575 106.355C49.3834 105.258 50.2351 104.667 51.6107 104.723C54.3243 104.832 56.3368 103.359 58.1044 101.456C61.9485 97.3138 64.3002 92.3992 65.6758 86.9684C65.7474 86.682 65.902 86.4144 66.0188 86.1393C66.0188 85.3855 66.0188 84.6356 66.0188 83.8818L66 83.8856Z" fill="#FFBF69"/>
<path d="M66 83.8856C63.946 84.7034 61.745 85.2762 59.8644 86.388C56.1747 88.5739 53.5592 91.8679 51.4977 95.5989C51.2904 95.9721 51.0567 96.3339 50.8193 96.7296C51.0869 93.1266 51.3243 89.5953 51.6183 86.0677C51.7539 84.417 52.5228 83.4635 54.1584 82.5929C56.0315 81.5941 57.8556 79.8907 58.8958 78.0402C62.0917 72.3493 63.2299 66.0856 62.9359 59.5694C62.9133 59.0304 62.7286 58.499 62.5515 57.6473C56.1898 61.9362 52.7225 67.7288 51.1698 74.8593C50.8494 71.7915 50.4123 68.7275 50.269 65.6484C50.2238 64.6308 50.6384 63.2552 51.3545 62.5957C56.4536 57.9073 56.8531 51.8396 56.4272 45.5985C56.2237 42.6249 55.4813 39.689 54.9461 36.7418C54.8858 36.414 54.5805 36.1275 54.2903 35.664C49.1987 41.0609 47.2879 47.351 47.6007 54.5456C46.5945 51.6775 45.4224 48.8509 44.6762 45.9151C44.4199 44.9088 45.1737 43.6048 45.5882 42.4817C46.3156 40.5182 47.695 38.6262 47.8156 36.6438C48.1962 30.2972 46.8847 24.1956 43.9526 18.4971C43.6511 17.913 43.2252 17.3967 42.6712 16.5675C40.5983 19.7371 39.6109 22.9556 39.4376 26.3061C39.268 29.6264 39.6109 32.973 39.7278 36.2142C38.0959 33.708 36.268 31.1113 34.7002 28.3601C34.2442 27.5573 34.1123 26.0423 34.5721 25.3375C37.0142 21.6139 36.4225 17.7547 35.2994 13.9181C33.8145 8.83022 30.9992 4.54511 26.5709 0.700948C24.9767 8.05762 26.032 14.6266 28.9113 20.8602C26.7066 18.7685 24.4039 16.609 22.1426 14.4042C21.8675 14.1367 21.6753 13.6392 21.679 13.251C21.7243 10.1493 20.1112 7.88425 17.9555 5.96217C14.394 2.78509 9.81115 1.85043 5.07755 -0.0113525C5.96321 3.83658 7.31244 6.84784 9.53225 9.44453C12.193 12.5575 15.5472 14.2384 19.5949 15.1505C21.6828 15.6216 23.4202 17.6492 25.1765 19.1605C19.9869 18.3351 12.8337 18.7873 10.5008 20.3891C13.0335 24.0749 16.4065 26.5322 20.8461 27.0448C22.9416 27.286 25.2104 26.9769 27.2644 26.4116C30.3548 25.5636 30.6337 25.4656 32.5294 28.1528C33.5696 29.6301 34.557 31.1452 35.4841 32.7997C30.6751 30.056 25.4064 30.3839 20.1188 30.0372C20.1188 30.4442 20.0283 30.7344 20.1301 30.9115C23.0509 35.9918 27.0797 39.6174 33.106 40.3938C34.5042 40.5747 35.9703 40.2845 37.3986 40.1639C39.0155 40.0282 40.1159 40.5295 40.734 42.184C41.6687 44.6902 42.7918 47.1286 43.7189 49.6989C39.4752 45.8472 34.0482 44.5884 29.1111 42.3121C28.9566 42.4478 28.7983 42.5835 28.6438 42.7191C29.2845 44.2229 29.8762 45.753 30.5771 47.2304C32.2316 50.7165 34.1613 54.0707 37.5532 56.1172C39.2717 57.1536 41.273 57.8847 43.244 58.3068C46.2817 58.9588 46.7942 59.1963 47.3897 62.2075C47.9475 65.019 48.411 67.8494 48.6937 70.7928C45.7277 65.1434 40.3534 62.1397 35.8421 58.2277C35.6424 58.2955 35.4389 58.3596 35.2391 58.4274C35.4577 60.2967 35.5519 62.1887 35.9175 64.0278C37.0029 69.4624 39.3773 74.2073 43.8282 77.701C44.7515 78.4246 45.8558 78.9296 46.9148 79.461C48.803 80.4032 49.7 81.8504 49.553 83.9949C49.3457 86.991 49.2251 89.9948 48.8671 93.0739C46.994 86.4144 42.1812 81.7072 38.4464 76.3028C38.2165 76.3254 37.9866 76.348 37.7605 76.3706C37.572 77.9723 37.2441 79.5703 37.214 81.1758C37.1198 86.0903 38.0883 90.8051 40.67 95.0223C41.7968 96.8615 43.3194 98.4971 44.842 100.046C46.5643 101.795 47.4425 103.525 46.4626 106.046C45.3244 108.989 44.4953 112.05 43.6021 114.846C42.9124 111.582 42.4149 108.217 41.4576 104.987C40.5079 101.776 39.0946 98.7007 37.8886 95.565C37.67 95.5349 37.4514 95.5047 37.2366 95.4746C36.5733 97.2158 35.7215 98.9079 35.2806 100.706C33.5469 107.723 33.9804 114.496 37.9602 120.774C39.1436 122.64 39.3471 124.408 37.8697 126.315C36.4678 128.124 35.3145 130.121 33.8447 131.968C35.1713 125.327 33.4037 118.935 32.9816 111.925C32.1525 112.604 31.6324 112.894 31.297 113.324C25.9152 120.277 24.1702 127.946 26.8461 136.453C27.4679 138.427 27.2682 140.044 25.3988 141.378C22.9303 143.138 20.6162 145.109 18.0987 146.847C21.8901 141.066 21.8524 134.429 23.2242 127.649C19.3839 129.164 16.8625 131.402 14.8425 134.237C12.2608 137.858 10.9418 141.88 11.0247 146.376C11.1038 150.68 11.0548 150.717 6.99586 152.172C4.96072 152.903 2.8615 153.461 0.739677 154.109C1.1354 155.862 1.91554 156.465 3.58134 155.851C5.3376 155.202 7.16545 154.742 8.95563 154.181C10.4858 153.702 11.7257 153.902 12.6603 155.394C14.0736 157.652 16.2935 158.847 18.7922 159.404C24.1664 160.607 29.3824 159.947 34.3497 157.584C35.2203 157.17 35.9326 156.435 36.9389 155.688C31.5721 151.011 25.8172 148.464 18.5434 149.673C21.3436 147.533 23.8649 145.501 26.5219 143.662C27.0797 143.278 28.444 143.259 28.9113 143.67C32.0168 146.398 35.5821 146.402 39.2039 145.479C44.0807 144.235 48.4676 142.027 51.6786 137.953C51.9009 137.67 52.0592 137.331 52.2401 137.029C49.1535 134.399 40.621 132.88 33.2078 136.814C35.356 133.758 37.3534 130.769 39.5242 127.909C40.2252 126.985 41.2692 126.571 42.6825 127.102C45.4337 128.131 48.1849 127.528 50.6346 126.103C55.4361 123.315 58.8468 119.222 61.0892 114.156C61.289 113.704 61.3983 113.203 61.5113 112.717C61.5641 112.483 61.5189 112.227 61.5189 111.718C54.7954 111.895 48.7879 113.489 44.2654 118.928C45.8219 114.733 47.3369 110.523 48.9575 106.355C49.3834 105.258 50.2351 104.667 51.6107 104.723C54.3243 104.832 56.3368 103.359 58.1044 101.456C61.9485 97.3138 64.3002 92.3992 65.6758 86.9684C65.7474 86.682 65.902 86.4144 66.0188 86.1393C66.0188 85.3855 66.0188 84.6356 66.0188 83.8818L66 83.8856Z" fill="url(#paint0_linear_565_1491)" fill-opacity="0.2"/>
<defs>
<linearGradient id="paint0_linear_565_1491" x1="66.2361" y1="-3.50012" x2="33.3792" y2="159.992" gradientUnits="userSpaceOnUse">
<stop/>
<stop offset="0.51827" stop-opacity="0.48173"/>
<stop offset="1"/>
</linearGradient>
</defs>
</svg>
